<svg xmlns="http://www.w3.org/2000/svg" width="16" height="16" viewBox="0 0 16 16" fill="none">
<path opacity="0.4" d="M2.06152 6.26931H13.9442" stroke="#0601B4" stroke-linecap="round" stroke-linejoin="round"/>
<path opacity="0.4" fill-rule="evenodd" clip-rule="evenodd" d="M4.53906 8.87305C4.53906 8.5969 4.76292 8.37305 5.03906 8.37305H5.04524C5.32138 8.37305 5.54524 8.5969 5.54524 8.87305C5.54524 9.14919 5.32138 9.37305 5.04524 9.37305H5.03906C4.76292 9.37305 4.53906 9.14919 4.53906 8.87305ZM8.00354 8.37305C7.7274 8.37305 7.50354 8.5969 7.50354 8.87305C7.50354 9.14919 7.7274 9.37305 8.00354 9.37305H8.00972C8.28586 9.37305 8.50972 9.14919 8.50972 8.87305C8.50972 8.5969 8.28586 8.37305 8.00972 8.37305H8.00354ZM10.9619 8.37305C10.6857 8.37305 10.4619 8.5969 10.4619 8.87305C10.4619 9.14919 10.6857 9.37305 10.9619 9.37305H10.968C11.2442 9.37305 11.468 9.14919 11.468 8.87305C11.468 8.5969 11.2442 8.37305 10.968 8.37305H10.9619ZM10.9619 10.9639C10.6857 10.9639 10.4619 11.1878 10.4619 11.4639C10.4619 11.7401 10.6857 11.9639 10.9619 11.9639H10.968C11.2442 11.9639 11.468 11.7401 11.468 11.4639C11.468 11.1878 11.2442 10.9639 10.968 10.9639H10.9619ZM7.50354 11.4639C7.50354 11.1878 7.7274 10.9639 8.00354 10.9639H8.00972C8.28586 10.9639 8.50972 11.1878 8.50972 11.4639C8.50972 11.7401 8.28586 11.9639 8.00972 11.9639H8.00354C7.7274 11.9639 7.50354 11.7401 7.50354 11.4639ZM5.03906 10.9639C4.76292 10.9639 4.53906 11.1878 4.53906 11.4639C4.53906 11.7401 4.76292 11.9639 5.03906 11.9639H5.04524C5.32138 11.9639 5.54524 11.7401 5.54524 11.4639C5.54524 11.1878 5.32138 10.9639 5.04524 10.9639H5.03906Z" fill="#0601B4"/>
<path d="M10.6955 1.33301V3.52686" stroke="#0601B4" stroke-linecap="round" stroke-linejoin="round"/>
<path d="M5.31075 1.33301V3.52686" stroke="#0601B4" stroke-linecap="round" stroke-linejoin="round"/>
<path fill-rule="evenodd" clip-rule="evenodd" d="M10.8255 2.38574H5.18064C3.22285 2.38574 2 3.47636 2 5.48109V11.5142C2 13.5504 3.22285 14.6663 5.18064 14.6663H10.8193C12.7833 14.6663 14 13.5694 14 11.5646V5.48109C14.0062 3.47636 12.7895 2.38574 10.8255 2.38574Z" stroke="#0601B4" stroke-linecap="round" stroke-linejoin="round"/>
</svg>