<svg xmlns="http://www.w3.org/2000/svg" width="7" height="13" viewBox="0 0 7 13" fill="none">
  <path d="M1.06641 12.3359C1.3584 12.3359 1.59326 12.2344 1.79639 12.0312L6.57617 7.37207C6.84912 7.09912 6.96973 6.83252 6.97607 6.49609C6.97607 6.16602 6.84912 5.88672 6.57617 5.62012L1.80273 0.95459C1.59326 0.757812 1.35205 0.65625 1.06641 0.65625C0.482422 0.65625 0 1.12598 0 1.70996C0 2.00195 0.126953 2.26855 0.342773 2.49072L4.48779 6.50244L0.342773 10.5015C0.120605 10.7236 0 10.9902 0 11.2822C0 11.8599 0.482422 12.3359 1.06641 12.3359Z" fill="#ABABAB"/>
</svg>