<svg width="20" height="6" viewBox="0 0 20 6" fill="none" xmlns="http://www.w3.org/2000/svg">
<g id="More 1" clip-path="url(#clip0_52_593)">
<g id="Clip path group">
<mask id="mask0_52_593" style="mask-type:luminance" maskUnits="userSpaceOnUse" x="0" y="0" width="20" height="6">
<g id="clip0">
<path id="Vector" d="M20 0H0V5.39216H20V0Z" fill="white"/>
</g>
</mask>
<g mask="url(#mask0_52_593)">
<g id="Group">
<path id="Vector_2" d="M4.42382 3.1903C4.42382 2.02129 3.55469 1.08398 2.45117 1.08398C1.36719 1.08398 0.498047 2.02129 0.498047 3.1903C0.498047 4.3593 1.36719 5.29661 2.45117 5.29661C3.55469 5.29661 4.42382 4.3593 4.42382 3.1903ZM11.6504 3.1903C11.6504 2.02129 10.791 1.08398 9.70702 1.08398C8.62305 1.08398 7.76367 2.02129 7.76367 3.1903C7.76367 4.3593 8.62305 5.29661 9.70702 5.29661C10.791 5.29661 11.6504 4.3593 11.6504 3.1903ZM18.916 3.1903C18.916 2.02129 18.0371 1.08398 16.9629 1.08398C15.8594 1.08398 14.9902 2.02129 14.9902 3.1903C14.9902 4.3593 15.8594 5.29661 16.9629 5.29661C18.0371 5.29661 18.916 4.3593 18.916 3.1903Z" fill="white"/>
</g>
</g>
</g>
</g>
<defs>
<clipPath id="clip0_52_593">
<rect width="20" height="5.39216" fill="white"/>
</clipPath>
</defs>
</svg>
