<svg width="14" height="18" viewBox="0 0 14 18" fill="none" xmlns="http://www.w3.org/2000/svg">
<g id="Shield Done">
<path id="Stroke 1" fill-rule="evenodd" clip-rule="evenodd" d="M12.7212 2.76586C13.0853 2.89336 13.3287 3.23669 13.3287 3.62253V9.26669C13.3287 10.8442 12.7553 12.35 11.7428 13.5167C11.2337 14.1042 10.5895 14.5617 9.90533 14.9317L6.94033 16.5334L3.97033 14.9309C3.28533 14.5609 2.64033 14.1042 2.13033 13.5159C1.11699 12.3492 0.541992 10.8425 0.541992 9.26336V3.62253C0.541992 3.23669 0.785326 2.89336 1.14949 2.76586L6.63449 0.838359C6.82949 0.770026 7.04199 0.770026 7.23616 0.838359L12.7212 2.76586Z" stroke="#0601B4" stroke-linecap="round" stroke-linejoin="round"/>
<path id="Stroke 3" opacity="0.4" d="M4.76953 8.42767L6.3462 10.0052L9.59453 6.75684" stroke="#0601B4" stroke-linecap="round" stroke-linejoin="round"/>
</g>
</svg>
