<svg width="42" height="13" viewBox="0 0 42 13" fill="none" xmlns="http://www.w3.org/2000/svg">
<g id="Vector">
<path d="M24.0892 9.75702C22.797 9.75702 22.0885 9.57989 21.0005 9.13287L20.5973 8.94899L20.1401 11.6059C20.9262 11.9297 22.3432 12.2081 23.8091 12.23C27.2521 12.23 29.5024 10.6325 29.5294 8.17471C29.5564 6.8235 28.6691 5.79787 26.795 4.95273C25.658 4.40449 24.9495 4.03675 24.9495 3.48007C24.9495 2.9875 25.5551 2.46287 26.8203 2.46287C27.9083 2.446 28.6691 2.67711 29.2747 2.91665L29.5783 3.0516L30.0355 0.484139L29.9562 0.501009C29.3034 0.258095 28.2862 0 27.021 0C23.7822 0 21.4964 1.6093 21.4795 3.91529C21.4593 5.61062 23.1057 6.56541 24.349 7.13389C25.6259 7.71587 26.0527 8.08193 26.0493 8.60487C26.0409 9.3994 25.0288 9.75702 24.0892 9.75702ZM38.362 0.217609H35.8317C35.0439 0.217609 34.4551 0.428472 34.1093 1.20107L29.2426 12.0647H32.6856L33.3738 10.2867L37.5742 10.2901C37.6771 10.7051 37.9791 12.0647 37.9791 12.0647H41.0138L38.362 0.217609ZM34.3168 7.85588L35.6225 4.5445C35.6056 4.57824 35.8924 3.85962 36.0577 3.41428L36.2821 4.43654L37.0395 7.85588H34.3168Z" fill="white"/>
<path d="M14.7725 11.9702H18.0518L20.1014 0.118098H16.8237V0.114724L14.7725 11.9702Z" fill="white"/>
<path d="M8.8329 8.29616L8.49215 6.64974V6.65481L7.34169 1.21286C7.14432 0.45882 6.5674 0.236149 5.85216 0.209159H0.570493L0.52832 0.458819C1.71758 0.737158 2.78876 1.14033 3.74692 1.63459C3.91898 1.74086 3.99152 1.85726 4.05056 2.02932L6.88454 12.0478H10.3494L15.513 0.217593H12.0397L8.8329 8.29616Z" fill="white"/>
</g>
</svg>
